<svg width="520" height="520" viewBox="0 0 520 520" fill="none" xmlns="http://www.w3.org/2000/svg">
<path d="M520 0H0V520H520V0Z" fill="#FA9269"/>
<path d="M169.541 410.514C173.727 407.93 175.032 402.438 172.453 398.242L166.364 388.336L165.448 386.849C164.83 385.84 164.372 384.452 164.029 382.975C163.992 382.814 163.956 382.647 163.92 382.481C163.852 382.148 163.79 381.815 163.727 381.482C163.493 380.146 163.342 378.82 163.244 377.712C163.098 376.043 163.072 374.863 163.072 374.863H163.067C163.909 366.647 162.973 358.212 160.108 350.158C159.208 349.492 158.579 348.442 158.543 347.001C158.491 345.108 158.116 343.247 157.56 341.422C155.204 338.369 152.901 335.286 150.712 332.114L150.01 332.545C143.707 325.047 135.73 319.514 126.984 316.16V316.155C126.958 316.15 126.937 316.139 126.911 316.134C126.485 315.968 126.048 315.806 125.616 315.656C122.205 314.246 119.309 311.792 117.359 308.625L110.354 297.227C108.274 293.842 104.302 292.334 100.641 293.228C99.757 293.441 98.894 293.795 98.077 294.299L97.729 293.727L0 134.758V256.552L43.737 327.699C39.536 330.283 38.225 335.78 40.81 339.981L47.814 351.38C50.014 354.957 50.19 363.36 50.19 363.36V363.366C48.963 375.331 51.516 387.785 58.302 398.824C65.088 409.864 75.046 417.758 86.278 422.068C86.304 422.079 86.325 422.084 86.346 422.094C86.778 422.256 87.209 422.417 87.646 422.573C88.644 422.984 89.601 423.483 90.501 424.07C91.156 424.492 91.775 424.96 92.368 425.464C92.565 425.631 92.758 425.802 92.945 425.979C93.699 426.686 94.396 427.466 95.02 428.303C95.332 428.719 95.623 429.151 95.898 429.603L96.819 431.09L102.908 440.997C105.487 445.198 110.984 446.509 115.185 443.929L111.488 437.908L161.949 520H237.245L169.541 410.514ZM54.891 345.842L47.029 333.055C48.532 335.504 51.735 336.268 54.179 334.76L59.275 331.63L76.794 320.861C66.784 327.049 59.368 335.852 54.891 345.842ZM77.038 320.71L94.567 309.936L99.663 306.805C102.092 305.313 102.861 302.146 101.4 299.702L109.226 312.437C98.285 311.922 87.084 314.569 77.038 320.71ZM165.714 404.337C165.584 404.144 165.448 403.967 165.298 403.801C165.282 403.785 165.272 403.764 165.256 403.749C164.96 403.432 164.622 403.166 164.258 402.958C164.086 402.86 163.909 402.776 163.727 402.704C163.41 402.574 163.082 402.48 162.744 402.428C162.583 402.407 162.427 402.386 162.261 402.381C161.424 402.345 160.566 402.548 159.801 403.021L112.882 431.865C110.843 433.118 110.198 435.776 111.431 437.819L107.77 431.86L104.036 425.787C115.019 426.301 126.266 423.634 136.339 417.44C146.416 411.247 153.873 402.418 158.371 392.382L165.792 404.451C165.766 404.409 165.74 404.373 165.714 404.337Z" fill="#744C3A"/>
<path d="M520 300.019V520H0V457.766L175.276 352.586C175.687 352.341 176.098 352.097 176.509 351.858C182.697 348.265 189.244 345.384 196.03 343.252C200.548 341.827 205.176 340.735 209.872 339.986C210.023 339.96 210.174 339.939 210.33 339.919C212.935 339.513 215.556 339.222 218.197 339.035C218.249 339.029 218.296 339.024 218.348 339.024C218.358 339.019 218.374 339.019 218.384 339.019C222.997 331.646 228.561 324.958 234.915 319.119C239.725 314.688 244.998 310.747 250.64 307.361L432.666 198.125L435.178 196.617C437.928 194.963 440.924 194.069 443.919 193.871C443.919 193.871 443.919 193.871 443.924 193.871C450.996 193.409 458.073 196.82 461.968 203.315L520 300.019Z" fill="#744C3A"/>
<path d="M520 306.124V520H0V457.766L175.276 352.586L175.63 352.373C175.921 352.196 176.218 352.024 176.509 351.858C182.728 348.213 189.327 345.301 196.17 343.163C200.642 341.765 205.223 340.704 209.872 339.986C210.023 339.96 210.174 339.939 210.33 339.919C212.94 339.523 215.571 339.243 218.218 339.066C218.254 339.061 218.291 339.055 218.327 339.055C218.332 339.045 218.338 339.035 218.348 339.024C222.877 331.703 228.358 325.073 234.624 319.296C239.377 314.902 244.582 310.996 250.162 307.647L250.64 307.362L432.666 198.125C437.284 195.359 442.598 194.761 447.45 196.04C452.213 197.293 456.524 200.351 459.274 204.932L520 306.124Z" fill="#D4E2FC"/>
<path d="M326.799 520H0V450.372L172.848 346.648C185.609 338.993 199.997 334.464 214.838 333.434L218.197 339.035L218.218 339.066L326.799 520Z" fill="white"/>
<path d="M169.541 410.514C173.727 407.93 175.032 402.438 172.453 398.242L166.364 388.336L165.448 386.849C164.83 385.84 164.372 384.452 164.029 382.975C163.992 382.814 163.956 382.647 163.92 382.481C163.852 382.148 163.79 381.815 163.727 381.482C163.493 380.146 163.342 378.82 163.244 377.712C163.098 376.043 163.072 374.863 163.072 374.863H163.067C163.795 367.786 163.197 360.547 161.19 353.527L67.21 409.926C72.764 415.298 79.274 419.38 86.278 422.068C86.304 422.079 86.3249 422.084 86.3459 422.094C86.7779 422.255 87.209 422.417 87.646 422.573C88.644 422.984 89.601 423.483 90.501 424.07C91.156 424.492 91.775 424.96 92.368 425.464C92.565 425.63 92.758 425.802 92.945 425.979C93.699 426.686 94.396 427.466 95.02 428.303C95.332 428.719 95.6229 429.151 95.8979 429.603L96.819 431.09L102.908 440.996C105.487 445.198 110.984 446.508 115.185 443.929L161.949 520H237.245L169.541 410.514Z" fill="#D4E2FC"/>
<path d="M520 314.449V520H326.794L214.838 333.434C215.16 332.92 215.488 332.405 215.821 331.9C216.148 331.391 216.486 330.886 216.829 330.387C217.162 329.893 217.505 329.399 217.849 328.916C217.864 328.9 217.869 328.884 217.88 328.874C221.702 323.476 226.08 318.516 230.937 314.054C235.622 309.738 240.755 305.895 246.251 302.598L425.984 194.745C431.647 191.344 438.365 191.24 443.919 193.872C443.919 193.872 443.919 193.872 443.924 193.872C445.167 194.459 446.347 195.182 447.449 196.04C449.254 197.439 450.829 199.191 452.077 201.266L520 314.449Z" fill="white"/>
<path d="M342.43 520H326.794L214.838 333.434C215.16 332.92 215.488 332.405 215.821 331.9C216.148 331.391 216.486 330.886 216.829 330.387C217.162 329.893 217.505 329.399 217.849 328.916C217.864 328.9 217.869 328.884 217.88 328.874C219.632 326.409 221.499 324.038 223.47 321.76L342.43 520Z" fill="#D4E2FC"/>
<path d="M327.839 520H325.738L214.063 333.897L215.607 332.972L327.839 520Z" fill="#A0BFF8"/>
<path d="M375.87 267.662L300.424 312.953L301.35 314.496L376.796 269.205L375.87 267.662Z" fill="#D4E2FC"/>
<path d="M432.302 247.469L307.772 322.225L308.698 323.767L433.228 249.012L432.302 247.469Z" fill="#D4E2FC"/>
<path d="M481.304 331.195L356.774 405.951L357.7 407.493L482.23 332.738L481.304 331.195Z" fill="#D4E2FC"/>
<path d="M467.61 351.544L362.127 414.866L363.053 416.408L468.537 353.086L467.61 351.544Z" fill="#D4E2FC"/>
<path d="M421.286 300.793L381.712 324.549L382.638 326.092L422.212 302.336L421.286 300.793Z" fill="#A0BFF8"/>
<path d="M430.194 307.579L373.397 341.674L374.323 343.216L431.12 309.121L430.194 307.579Z" fill="#A0BFF8"/>
<path d="M419.811 325.941L384.464 347.16L385.39 348.703L420.737 327.484L419.811 325.941Z" fill="#A0BFF8"/>
<path d="M456.487 408.278L383.912 451.845L384.838 453.387L457.413 409.82L456.487 408.278Z" fill="#D4E2FC"/>
<path d="M513.791 386.007L389.261 460.763L390.187 462.305L514.717 387.55L513.791 386.007Z" fill="#D4E2FC"/>
<path d="M491.013 453.779L412.785 500.74L413.711 502.283L491.939 455.322L491.013 453.779Z" fill="#D4E2FC"/>
<path d="M520 460.652V462.753L424.611 520H424.315L423.462 518.585L520 460.652Z" fill="#D4E2FC"/>
<path d="M453.901 261.118L271.287 370.686L272.191 372.193L454.805 262.625L453.901 261.118Z" fill="#D4E2FC"/>
<path d="M482.428 308.657L299.814 418.225L300.719 419.732L483.333 310.164L482.428 308.657Z" fill="#D4E2FC"/>
<path d="M510.957 356.195L328.343 465.763L329.247 467.27L511.861 357.702L510.957 356.195Z" fill="#D4E2FC"/>
<path d="M520 415.417V417.466L357.776 514.815L356.871 513.307L520 415.417Z" fill="#D4E2FC"/>
<path d="M520 480.069V482.123L456.883 520H453.461L520 480.069Z" fill="#D4E2FC"/>
<path d="M283.655 308.589L410.524 520H408.418L282.11 309.519L283.655 308.589Z" fill="#D4E2FC"/>
<path d="M215.723 404.002L33.1299 513.613L34.0559 515.156L216.649 405.545L215.723 404.002Z" fill="#D4E2FC"/>
<path d="M245.164 453.102L133.692 520H130.192L244.239 451.557L245.164 453.102Z" fill="#D4E2FC"/>
<path d="M273.692 500.64L241.431 520H237.932L272.766 499.096L273.692 500.64Z" fill="#D4E2FC"/>
<path d="M45.4791 451.521L86.5751 520H84.4741L43.9351 452.447L45.4791 451.521Z" fill="#D4E2FC"/>
<path d="M164.413 327.356C164.533 326.966 164.481 326.544 164.268 326.201L159.364 318.224C159.151 317.876 158.797 317.642 158.397 317.574L157.009 317.34L156.972 317.283C156.478 316.482 155.433 316.233 154.632 316.727L149.151 320.096L157.986 334.469L163.467 331.1C164.268 330.606 164.517 329.56 164.023 328.76L163.987 328.702L164.413 327.356Z" fill="white"/>
<path d="M100.927 293.051L100.641 293.228L95.831 296.182L60.538 317.876C60.523 317.886 60.512 317.892 60.497 317.902L55.442 321.006C52.998 322.509 49.795 321.75 48.292 319.301L0 240.744V118.945L102.632 285.896C104.135 288.345 103.371 291.548 100.927 293.051Z" fill="#3D281E"/>
<path d="M97.729 293.727C97.427 294.715 96.777 295.599 95.831 296.182L60.538 317.876C60.523 317.886 60.512 317.892 60.497 317.902C58.438 319.134 55.76 318.484 54.501 316.436L0 227.776V131.908L97.271 290.144C97.958 291.262 98.082 292.562 97.729 293.727Z" fill="#744C3A"/>
<path d="M73.2782 359.944L45.0012 313.945C40.7992 316.529 39.4892 322.026 42.0732 326.222L49.0772 337.62C51.2772 341.203 51.4542 349.606 51.4542 349.606L73.2782 359.944Z" fill="white"/>
<path d="M51.4541 349.606L73.2781 359.939L52.6191 326.331C50.9081 329.597 49.4941 333.003 48.3911 336.497L49.0831 337.62C51.2771 341.203 51.4541 349.606 51.4541 349.606Z" fill="#A0BFF8"/>
<path d="M127.613 326.539L99.335 280.54C103.537 277.956 109.033 279.271 111.613 283.468L118.617 294.866C120.817 298.449 124.233 301.122 128.237 302.396L127.613 326.539Z" fill="white"/>
<path d="M142.511 350.771L170.789 396.77C174.99 394.186 176.301 388.69 173.716 384.493L166.712 373.095C164.512 369.512 164.336 361.109 164.336 361.109L142.511 350.771Z" fill="white"/>
<path d="M88.1758 384.176L116.454 430.175C112.252 432.76 106.756 431.444 104.177 427.248L97.1718 415.849C94.9728 412.266 91.5558 409.594 87.5518 408.32L88.1758 384.176Z" fill="white"/>
<path d="M87.542 408.314C91.546 409.594 94.962 412.266 97.162 415.844L98.077 417.336C101.686 417.908 105.352 418.168 109.028 418.106L88.171 384.176L87.542 408.314Z" fill="#A0BFF8"/>
<path d="M247.015 520H171.668L112.715 424.102C111.457 422.053 112.096 419.37 114.145 418.111L161.065 389.267C163.113 388.008 165.797 388.648 167.055 390.697L247.015 520Z" fill="#3D281E"/>
<path d="M107.895 412.09C139.227 412.09 164.627 386.69 164.627 355.358C164.627 324.026 139.227 298.626 107.895 298.626C76.5621 298.626 51.1631 324.026 51.1631 355.358C51.1631 386.69 76.5621 412.09 107.895 412.09Z" fill="white"/>
<path d="M107.895 412.09C139.227 412.09 164.627 386.69 164.627 355.358C164.627 324.026 139.227 298.626 107.895 298.626C76.5621 298.626 51.1631 324.026 51.1631 355.358C51.1631 386.69 76.5621 412.09 107.895 412.09Z" fill="white"/>
<path d="M107.895 407.919C136.924 407.919 160.456 384.386 160.456 355.357C160.456 326.329 136.924 302.796 107.895 302.796C78.866 302.796 55.333 326.329 55.333 355.357C55.333 384.386 78.866 407.919 107.895 407.919Z" fill="#D4E2FC"/>
<path d="M107.895 404.763C135.181 404.763 157.3 382.643 157.3 355.358C157.3 328.072 135.181 305.952 107.895 305.952C80.6092 305.952 58.4902 328.072 58.4902 355.358C58.4902 382.643 80.6092 404.763 107.895 404.763Z" fill="black"/>
<path d="M107.895 404.763C135.181 404.763 157.3 382.643 157.3 355.358C157.3 328.072 135.181 305.952 107.895 305.952C80.6092 305.952 58.4902 328.072 58.4902 355.358C58.4902 382.643 80.6092 404.763 107.895 404.763Z" fill="black"/>
<path d="M238.42 520H179.509L118.243 420.129C117.125 418.309 117.692 415.927 119.512 414.809L155.698 392.564C157.518 391.446 159.895 392.018 161.013 393.833L238.42 520Z" fill="#744C3A"/>
<path d="M155.698 392.563L119.512 414.809C117.692 415.927 117.125 418.309 118.243 420.123L120.676 424.086C154.43 402.724 157.347 391.549 155.698 392.563Z" fill="#3D281E"/>
<path d="M96.294 295.953L60.096 318.183C58.276 319.301 55.9 318.729 54.782 316.914L52.562 313.295C76.502 297.664 97.942 294.939 96.294 295.953Z" fill="#3D281E"/>
<path d="M85.4498 316.246L83.1328 317.67L88.8268 326.933L91.1438 325.509L85.4498 316.246Z" fill="#A26147"/>
<path d="M68.9039 332.703L67.6099 335.095L77.1729 340.269L78.4669 337.877L68.9039 332.703Z" fill="#A26147"/>
<path d="M62.7959 355.238L62.8709 357.957L73.7399 357.657L73.6649 354.938L62.7959 355.238Z" fill="#A26147"/>
<path d="M68.7842 377.804L70.2082 380.121L79.4712 374.426L78.0472 372.11L68.7842 377.804Z" fill="#A26147"/>
<path d="M85.2378 394.347L87.6298 395.642L92.8038 386.079L90.4128 384.784L85.2378 394.347Z" fill="#A26147"/>
<path d="M107.772 400.457L110.491 400.382L110.191 389.514L107.472 389.589L107.772 400.457Z" fill="#A26147"/>
<path d="M130.339 394.467L132.656 393.043L126.962 383.78L124.645 385.204L130.339 394.467Z" fill="#A26147"/>
<path d="M146.886 378.015L148.18 375.623L138.617 370.448L137.323 372.84L146.886 378.015Z" fill="#A26147"/>
<path d="M152.997 355.479L152.922 352.761L142.054 353.061L142.129 355.779L152.997 355.479Z" fill="#A26147"/>
<path d="M147.006 332.915L145.582 330.598L136.319 336.292L137.743 338.609L147.006 332.915Z" fill="#A26147"/>
<path d="M130.55 316.366L128.158 315.072L122.984 324.635L125.376 325.929L130.55 316.366Z" fill="#A26147"/>
<path d="M108.013 310.261L105.294 310.336L105.595 321.205L108.313 321.13L108.013 310.261Z" fill="#A26147"/>
<path d="M109.278 353.912L107.895 355.358L106.512 356.808L80.9742 332.275L80.9072 329.446L83.7362 329.378L109.278 353.912Z" fill="white"/>
<path d="M137.669 354.122L100.58 354.882L100.605 356.119L137.695 355.359L137.669 354.122Z" fill="#FA9269"/>
<path d="M130.822 359.216C133.217 359.216 135.158 357.274 135.158 354.879C135.158 352.484 133.217 350.542 130.822 350.542C128.427 350.542 126.485 352.484 126.485 354.879C126.485 357.274 128.427 359.216 130.822 359.216Z" fill="#FA9269"/>
<path d="M172.38 463.019C173.908 463.019 175.147 461.78 175.147 460.252C175.147 458.724 173.908 457.486 172.38 457.486C170.852 457.486 169.614 458.724 169.614 460.252C169.614 461.78 170.852 463.019 172.38 463.019Z" fill="#3D281E"/>
<path d="M185.864 484.957C187.391 484.957 188.63 483.718 188.63 482.191C188.63 480.663 187.391 479.424 185.864 479.424C184.336 479.424 183.097 480.663 183.097 482.191C183.097 483.718 184.336 484.957 185.864 484.957Z" fill="#3D281E"/>
<path d="M199.347 506.891C200.875 506.891 202.113 505.652 202.113 504.124C202.113 502.596 200.875 501.358 199.347 501.358C197.819 501.358 196.581 502.596 196.581 504.124C196.581 505.652 197.819 506.891 199.347 506.891Z" fill="#3D281E"/>
<path d="M91.042 370.303L93.865 370.464L106.912 358.935C108.794 359.45 110.77 358.41 111.384 356.538C112.018 354.604 110.968 352.524 109.039 351.889C107.104 351.255 105.024 352.305 104.39 354.234C104.203 354.806 104.166 355.389 104.25 355.945L91.198 367.474L91.042 370.303Z" fill="white"/>
<path d="M107.889 356.637C108.582 356.637 109.143 356.076 109.143 355.384C109.143 354.691 108.582 354.13 107.889 354.13C107.197 354.13 106.636 354.691 106.636 355.384C106.636 356.076 107.197 356.637 107.889 356.637Z" fill="black"/>
<path d="M439.202 313.789C437.585 324.641 433.524 335.088 427.934 344.5C422.521 353.615 415.568 362.008 407.124 368.461C403.354 371.342 399.251 373.838 394.846 375.632C393.822 376.048 392.787 376.428 391.732 376.755C391.487 376.833 391.243 376.906 390.993 376.979C395.788 375.57 394.586 376.048 393.588 376.277C393.468 376.303 393.349 376.334 393.234 376.36C392.699 376.48 392.158 376.589 391.617 376.683C389.709 377.01 387.764 377.161 385.824 377.083C382.372 376.948 378.96 376.059 375.96 374.332C372.98 372.621 370.505 370.141 368.649 367.265C363.964 360.006 363.106 350.823 363.86 342.409C364.827 331.547 368.462 320.959 373.61 311.391C378.674 301.969 385.341 293.259 393.489 286.296C397.166 283.155 401.17 280.374 405.501 278.216C407.576 277.181 409.729 276.291 411.944 275.61C412.053 275.579 412.157 275.543 412.266 275.511C412.298 275.501 412.329 275.491 412.36 275.486C412.984 275.309 412.573 275.418 411.122 275.813C410.654 275.938 410.192 276.063 409.724 276.187C409.802 276.167 409.885 276.146 409.968 276.13C410.072 276.104 410.176 276.083 410.28 276.057C410.842 275.933 411.408 275.818 411.975 275.725C412.942 275.563 413.915 275.444 414.892 275.376C418.46 275.137 422.084 275.61 425.386 277.009C428.511 278.335 431.241 280.457 433.373 283.093C438.594 289.546 440.092 298.287 439.868 306.379C439.795 308.849 439.561 311.329 439.202 313.789C439.218 313.669 441.267 313.258 441.47 313.206C442 313.066 442.536 312.92 443.066 312.769C443.144 312.749 443.716 312.629 443.721 312.577C445.026 303.654 444.792 293.836 440.43 285.719C438.745 282.578 436.405 279.781 433.462 277.747C430.555 275.74 427.154 274.57 423.649 274.217C418.652 273.717 413.878 274.976 409.11 276.312C404.498 277.602 400.166 279.599 396.131 282.167C387.083 287.934 379.595 296.067 373.672 304.949C367.427 314.314 362.731 324.87 360.469 335.92C358.582 345.139 358.186 355.326 361.878 364.171C363.288 367.546 365.336 370.682 368.082 373.121C370.687 375.435 373.859 377.026 377.255 377.775C381.056 378.612 385.013 378.399 388.794 377.551C394.202 376.345 399.469 374.712 404.336 372.034C413.556 366.964 421.257 359.294 427.44 350.859C434.132 341.733 439.27 331.344 442.12 320.382C442.79 317.808 443.326 315.203 443.716 312.572C443.7 312.691 441.657 313.102 441.449 313.154C440.918 313.295 440.383 313.44 439.852 313.591C439.78 313.617 439.213 313.731 439.202 313.789Z" fill="#FA9269"/>
<path d="M381.706 79.404V79.721C381.706 80.48 381.701 81.24 381.685 81.999C381.68 82.43 381.675 82.862 381.664 83.294C381.654 83.725 381.638 84.157 381.623 84.588C381.597 85.348 381.566 86.107 381.524 86.866C381.519 86.97 381.513 87.074 381.508 87.178C380.567 104.64 376.137 122.065 368.025 138.372C361.707 151.138 353.257 162.968 342.82 173.295C342.633 173.488 342.441 173.675 342.248 173.862C341.78 174.32 341.307 174.772 340.834 175.224C340.361 175.677 339.882 176.124 339.404 176.566C339.206 176.748 339.009 176.93 338.806 177.112C327.969 187.008 315.728 194.844 302.666 200.507C285.964 207.787 268.33 211.328 250.838 211.385H250.526C249.766 211.39 249.007 211.38 248.248 211.37C247.816 211.364 247.385 211.354 246.953 211.344C246.522 211.333 246.09 211.318 245.653 211.302C244.899 211.276 244.14 211.245 243.386 211.208C243.277 211.203 243.173 211.193 243.064 211.188C225.607 210.246 208.182 205.821 191.88 197.709C179.114 191.391 167.279 182.941 156.946 172.505L156.385 171.928C155.927 171.46 155.47 170.992 155.022 170.513C155.012 170.508 155.002 170.498 154.991 170.487L154.939 170.43C154.513 169.983 154.097 169.536 153.681 169.088C153.499 168.886 153.317 168.688 153.135 168.49C153.13 168.485 153.13 168.485 153.13 168.485C150.072 165.693 145.787 164.752 141.903 165.927C140.915 166.223 139.948 166.66 139.038 167.237L94.1768 195.598C90.0948 198.177 84.6868 196.96 82.1078 192.878L76.1588 183.466C73.5748 179.384 74.7918 173.976 78.8788 171.397L117.026 147.274L123.687 143.068C124.878 142.308 125.897 141.367 126.719 140.296C127.124 139.76 127.488 139.194 127.795 138.601C128.258 137.712 128.606 136.77 128.825 135.793C129.017 134.945 129.121 134.072 129.121 133.193C129.121 131.721 128.846 130.239 128.263 128.809C121.982 113.168 118.914 96.782 118.862 80.522C118.862 80.418 118.856 80.314 118.856 80.205C118.856 79.446 118.867 78.686 118.877 77.927C118.882 77.496 118.893 77.064 118.903 76.632C118.914 76.201 118.929 75.769 118.945 75.338C118.971 74.578 119.002 73.819 119.038 73.06C119.044 72.956 119.049 72.857 119.059 72.753C120 55.286 124.431 37.851 132.548 21.544C136.282 13.998 140.764 6.776 145.959 0H354.598C361.187 8.585 366.616 17.867 370.838 27.607C378.108 44.299 381.649 61.922 381.706 79.404Z" fill="#744C3A"/>
<path d="M520 0V42.864L180.383 251.638L25.6929 0H520Z" fill="#744C3A"/>
<path d="M520 0V42.624L183.695 249.366L30.3989 0H520Z" fill="white"/>
<path d="M381.706 79.404V79.721C381.706 80.48 381.701 81.24 381.685 81.999C381.68 82.43 381.675 82.862 381.664 83.294C381.654 83.725 381.638 84.157 381.623 84.588C381.597 85.348 381.566 86.107 381.524 86.866C381.519 86.97 381.514 87.074 381.508 87.178C380.63 103.47 376.714 119.73 369.6 135.086L245.617 211.302C244.873 211.276 244.13 211.245 243.386 211.208C243.277 211.203 243.173 211.193 243.064 211.188C225.607 210.246 208.182 205.821 191.88 197.709C179.114 191.391 167.279 182.941 156.946 172.505L156.385 171.928C155.927 171.46 155.47 170.992 155.022 170.513C155.012 170.508 155.002 170.498 154.991 170.487L154.939 170.43C154.513 169.983 154.097 169.536 153.681 169.088C153.499 168.886 153.317 168.688 153.135 168.49C153.13 168.485 153.13 168.485 153.13 168.485C150.072 165.693 145.787 164.752 141.903 165.927C140.915 166.223 139.948 166.66 139.038 167.237L134.841 169.889L119.844 145.496L123.687 143.068C124.878 142.308 125.897 141.367 126.719 140.296C127.124 139.76 127.488 139.194 127.795 138.601C128.258 137.712 128.606 136.77 128.825 135.793C129.017 134.945 129.121 134.072 129.121 133.193C129.121 131.721 128.846 130.239 128.263 128.809C121.982 113.168 118.914 96.782 118.862 80.522C118.862 80.418 118.856 80.314 118.856 80.205C118.856 79.446 118.867 78.686 118.877 77.927C118.882 77.496 118.893 77.064 118.903 76.632C118.914 76.201 118.929 75.769 118.945 75.338C118.971 74.578 119.002 73.819 119.038 73.06C119.044 72.956 119.049 72.857 119.059 72.753C120 55.286 124.431 37.851 132.548 21.544C136.282 13.998 140.764 6.776 145.959 0H354.598C361.187 8.585 366.616 17.867 370.838 27.607C378.108 44.299 381.649 61.922 381.706 79.404Z" fill="#D4E2FC"/>
<path d="M185.474 234.073L184.584 232.622L190.908 228.732L191.797 230.183L185.474 234.073ZM198.125 226.294L197.236 224.843L203.559 220.953L204.448 222.404L198.125 226.294ZM210.777 218.52L209.888 217.069L216.211 213.179L217.1 214.63L210.777 218.52ZM223.428 210.74L222.539 209.29L228.862 205.4L229.752 206.851L223.428 210.74ZM236.075 202.966L235.186 201.516L241.509 197.626L242.398 199.077L236.075 202.966ZM248.726 195.187L247.837 193.736L254.16 189.847L255.05 191.298L248.726 195.187ZM261.378 187.413L260.489 185.962L266.812 182.073L267.701 183.524L261.378 187.413ZM274.03 179.634L273.14 178.183L279.464 174.294L280.353 175.744L274.03 179.634ZM286.681 171.86L285.792 170.409L292.115 166.52L293.004 167.97L286.681 171.86ZM299.328 164.081L298.438 162.63L304.762 158.74L305.651 160.191L299.328 164.081ZM311.979 156.307L311.09 154.856L317.413 150.966L318.302 152.417L311.979 156.307ZM324.631 148.528L323.742 147.077L330.065 143.187L330.954 144.638L324.631 148.528ZM337.282 140.754L336.393 139.303L342.716 135.413L343.606 136.864L337.282 140.754ZM349.929 132.974L349.04 131.524L355.363 127.634L356.252 129.085L349.929 132.974ZM362.58 125.2L361.691 123.75L368.014 119.86L368.904 121.311L362.58 125.2ZM375.232 117.421L374.343 115.97L380.666 112.081L381.555 113.532L375.232 117.421ZM387.884 109.647L386.994 108.196L393.318 104.307L394.207 105.758L387.884 109.647ZM400.535 101.868L399.646 100.417L405.969 96.528L406.858 97.978L400.535 101.868ZM413.182 94.089L412.292 92.638L418.616 88.748L419.505 90.199L413.182 94.089ZM425.833 86.315L424.944 84.864L431.267 80.974L432.156 82.425L425.833 86.315ZM438.485 78.536L437.596 77.085L443.919 73.195L444.808 74.646L438.485 78.536ZM451.136 70.762L450.247 69.311L456.57 65.421L457.46 66.872L451.136 70.762ZM463.783 62.982L462.894 61.532L469.217 57.642L470.106 59.093L463.783 62.982ZM476.434 55.208L475.545 53.758L481.868 49.868L482.758 51.319L476.434 55.208ZM489.086 47.429L488.197 45.978L494.52 42.094L495.409 43.545L489.086 47.429ZM501.738 39.655L500.848 38.204L507.172 34.315L508.061 35.766L501.738 39.655ZM520 28.428L514.389 31.876L513.495 30.425L519.823 26.541L520 26.827V28.428Z" fill="#A0BFF8"/>
<path d="M170.675 209.997L169.786 208.546L176.109 204.657L176.998 206.107L170.675 209.997ZM183.326 202.223L182.437 200.772L188.76 196.883L189.65 198.333L183.326 202.223ZM195.978 194.444L195.089 192.993L201.412 189.103L202.301 190.554L195.978 194.444ZM208.63 186.665L207.74 185.214L214.064 181.324L214.953 182.775L208.63 186.665ZM221.276 178.891L220.387 177.44L226.71 173.55L227.599 175.001L221.276 178.891ZM233.928 171.111L233.038 169.661L239.362 165.771L240.251 167.222L233.928 171.111ZM246.579 163.337L245.69 161.887L252.013 157.997L252.902 159.448L246.579 163.337ZM259.231 155.558L258.342 154.107L264.665 150.218L265.554 151.669L259.231 155.558ZM271.882 147.784L270.993 146.333L277.316 142.444L278.206 143.895L271.882 147.784ZM284.529 140.005L283.64 138.554L289.963 134.665L290.852 136.115L284.529 140.005ZM297.18 132.231L296.291 130.78L302.614 126.891L303.504 128.341L297.18 132.231ZM309.832 124.452L308.943 123.001L315.266 119.111L316.155 120.562L309.832 124.452ZM322.484 116.678L321.594 115.227L327.918 111.337L328.807 112.788L322.484 116.678ZM335.13 108.899L334.241 107.448L340.564 103.558L341.453 105.009L335.13 108.899ZM347.782 101.125L346.892 99.674L353.216 95.784L354.105 97.235L347.782 101.125ZM360.433 93.345L359.544 91.895L365.867 88.005L366.756 89.4559L360.433 93.345ZM373.085 85.571L372.196 84.121L378.519 80.231L379.408 81.682L373.085 85.571ZM385.731 77.792L384.842 76.341L391.165 72.452L392.054 73.903L385.731 77.792ZM398.383 70.018L397.494 68.567L403.817 64.6779L404.706 66.129L398.383 70.018ZM411.034 62.239L410.145 60.7879L416.468 56.899L417.358 58.349L411.034 62.239ZM423.686 54.465L422.797 53.014L429.12 49.125L430.009 50.575L423.686 54.465ZM436.338 46.686L435.448 45.235L441.772 41.345L442.661 42.796L436.338 46.686ZM448.984 38.912L448.095 37.461L454.418 33.571L455.307 35.022L448.984 38.912ZM461.636 31.1329L460.746 29.682L467.07 25.792L467.959 27.243L461.636 31.1329ZM474.287 23.3589L473.398 21.908L479.721 18.018L480.61 19.4689L474.287 23.3589ZM486.939 15.5789L486.05 14.129L492.373 10.239L493.262 11.69L486.939 15.5789ZM499.59 7.79996L498.701 6.34895L505.024 2.45996L505.914 3.91095L499.59 7.79996Z" fill="#A0BFF8"/>
<path d="M155.876 185.921L154.986 184.47L161.31 180.58L162.199 182.031L155.876 185.921ZM168.527 178.147L167.638 176.696L173.961 172.806L174.85 174.257L168.527 178.147ZM181.179 170.368L180.29 168.917L186.613 165.027L187.502 166.478L181.179 170.368ZM193.825 162.594L192.936 161.143L199.259 157.253L200.148 158.704L193.825 162.594ZM206.477 154.814L205.588 153.364L211.911 149.474L212.8 150.925L206.477 154.814ZM219.128 147.04L218.239 145.59L224.562 141.7L225.452 143.151L219.128 147.04ZM231.78 139.261L230.891 137.81L237.214 133.921L238.103 135.372L231.78 139.261ZM244.432 131.487L243.542 130.036L249.866 126.147L250.755 127.598L244.432 131.487ZM257.078 123.708L256.189 122.257L262.512 118.368L263.401 119.818L257.078 123.708ZM269.73 115.929L268.84 114.478L275.164 110.588L276.053 112.039L269.73 115.929ZM282.381 108.155L281.492 106.704L287.815 102.814L288.704 104.265L282.381 108.155ZM295.033 100.376L294.144 98.9251L300.467 95.0351L301.356 96.4861L295.033 100.376ZM307.679 92.6021L306.79 91.1511L313.113 87.2611L314.002 88.7121L307.679 92.6021ZM320.331 84.8221L319.442 83.3721L325.765 79.4821L326.654 80.9331L320.331 84.8221ZM332.982 77.0481L332.093 75.5981L338.416 71.7081L339.306 73.1591L332.982 77.0481ZM345.634 69.2691L344.745 67.8181L351.068 63.9291L351.957 65.3801L345.634 69.2691ZM358.286 61.4951L357.396 60.0441L363.72 56.1551L364.609 57.6061L358.286 61.4951ZM370.932 53.7161L370.043 52.2651L376.366 48.3761L377.255 49.8261L370.932 53.7161ZM383.584 45.9421L382.694 44.4911L389.018 40.6021L389.907 42.0521L383.584 45.9421ZM396.235 38.1631L395.346 36.7121L401.669 32.8221L402.558 34.2731L396.235 38.1631ZM408.887 30.3891L407.998 28.9381L414.321 25.0481L415.21 26.4991L408.887 30.3891ZM421.538 22.6101L420.649 21.1591L426.972 17.2691L427.862 18.7201L421.538 22.6101ZM434.185 14.8361L433.296 13.3851L439.619 9.49506L440.508 10.9461L434.185 14.8361ZM446.836 7.05606L445.947 5.60606L452.27 1.71606L453.16 3.16707L446.836 7.05606Z" fill="#A0BFF8"/>
<path d="M141.076 161.845L140.187 160.394L146.51 156.504L147.399 157.955L141.076 161.845ZM153.728 154.071L152.839 152.62L159.162 148.73L160.051 150.181L153.728 154.071ZM166.379 146.292L165.49 144.841L171.813 140.951L172.703 142.402L166.379 146.292ZM179.026 138.518L178.137 137.067L184.46 133.177L185.349 134.628L179.026 138.518ZM191.677 130.738L190.788 129.288L197.111 125.398L198.001 126.849L191.677 130.738ZM204.329 122.964L203.44 121.514L209.763 117.624L210.652 119.075L204.329 122.964ZM216.981 115.185L216.091 113.734L222.415 109.845L223.304 111.296L216.981 115.185ZM229.627 107.411L228.738 105.96L235.061 102.071L235.95 103.522L229.627 107.411ZM242.279 99.6319L241.389 98.1809L247.713 94.2919L248.602 95.7419L242.279 99.6319ZM254.93 91.8579L254.041 90.4069L260.364 86.5179L261.253 87.9679L254.93 91.8579ZM267.582 84.0789L266.693 82.6279L273.016 78.7379L273.905 80.1889L267.582 84.0789ZM280.233 76.3049L279.344 74.8539L285.667 70.9639L286.557 72.4149L280.233 76.3049ZM292.88 68.5259L291.991 67.0749L298.314 63.1849L299.203 64.6359L292.88 68.5259ZM305.531 60.7519L304.642 59.3009L310.965 55.4109L311.855 56.8619L305.531 60.7519ZM318.183 52.9719L317.294 51.5219L323.617 47.6319L324.506 49.0829L318.183 52.9719ZM330.835 45.1979L329.945 43.7479L336.269 39.8579L337.158 41.3089L330.835 45.1979ZM343.486 37.4189L342.597 35.9679L348.92 32.0789L349.809 33.5299L343.486 37.4189ZM356.133 29.6449L355.243 28.1939L361.567 24.3049L362.456 25.7559L356.133 29.6449ZM368.784 21.8659L367.895 20.4149L374.218 16.5259L375.107 17.9759L368.784 21.8659ZM381.436 14.0869L380.547 12.6359L386.87 8.74593L387.759 10.1969L381.436 14.0869ZM394.087 6.31293L393.198 4.86192L399.521 0.971924L400.411 2.42293L394.087 6.31293Z" fill="#A0BFF8"/>
<path d="M126.277 137.774L125.388 136.323L131.711 132.434L132.6 133.884L126.277 137.774ZM138.928 129.995L138.039 128.544L144.362 124.654L145.252 126.105L138.928 129.995ZM151.575 122.221L150.686 120.77L157.009 116.88L157.898 118.331L151.575 122.221ZM164.226 114.442L163.337 112.991L169.66 109.101L170.55 110.552L164.226 114.442ZM176.878 106.668L175.989 105.217L182.312 101.327L183.201 102.778L176.878 106.668ZM189.53 98.888L188.64 97.438L194.964 93.548L195.853 94.999L189.53 98.888ZM202.181 91.109L201.292 89.658L207.615 85.769L208.504 87.22L202.181 91.109ZM214.828 83.335L213.938 81.884L220.262 77.995L221.151 79.446L214.828 83.335ZM227.479 75.556L226.59 74.105L232.913 70.216L233.802 71.666L227.479 75.556ZM240.131 67.782L239.242 66.331L245.565 62.442L246.454 63.892L240.131 67.782ZM252.782 60.003L251.893 58.552L258.216 54.662L259.106 56.113L252.782 60.003ZM265.429 52.229L264.54 50.778L270.863 46.888L271.752 48.339L265.429 52.229ZM278.08 44.45L277.191 42.999L283.514 39.109L284.404 40.56L278.08 44.45ZM290.732 36.676L289.843 35.225L296.166 31.335L297.055 32.786L290.732 36.676ZM303.384 28.896L302.494 27.446L308.818 23.556L309.707 25.007L303.384 28.896ZM316.035 21.122L315.146 19.672L321.469 15.782L322.358 17.233L316.035 21.122ZM328.682 13.343L327.792 11.892L334.116 8.00301L335.005 9.45399L328.682 13.343ZM341.333 5.569L340.444 4.118L346.767 0.229004L347.656 1.67999L341.333 5.569Z" fill="#A0BFF8"/>
<path d="M111.478 113.698L110.589 112.247L116.912 108.358L117.801 109.808L111.478 113.698ZM124.13 105.919L123.24 104.468L129.564 100.578L130.453 102.029L124.13 105.919ZM136.776 98.145L135.887 96.694L142.21 92.804L143.099 94.255L136.776 98.145ZM149.428 90.366L148.538 88.915L154.862 85.025L155.751 86.476L149.428 90.366ZM162.079 82.592L161.19 81.141L167.513 77.251L168.402 78.702L162.079 82.592ZM174.731 74.812L173.842 73.362L180.165 69.472L181.054 70.923L174.731 74.812ZM187.377 67.038L186.488 65.588L192.811 61.698L193.7 63.149L187.377 67.038ZM200.029 59.259L199.14 57.808L205.463 53.919L206.352 55.37L200.029 59.259ZM212.68 51.485L211.791 50.034L218.114 46.145L219.004 47.596L212.68 51.485ZM225.332 43.706L224.443 42.255L230.766 38.366L231.655 39.816L225.332 43.706ZM237.984 35.932L237.094 34.481L243.418 30.592L244.307 32.042L237.984 35.932ZM250.63 28.153L249.741 26.702L256.064 22.812L256.953 24.263L250.63 28.153ZM263.282 20.374L262.392 18.923L268.716 15.033L269.605 16.484L263.282 20.374ZM275.933 12.6L275.044 11.149L281.367 7.25903L282.256 8.71004L275.933 12.6Z" fill="#A0BFF8"/>
<path d="M96.679 89.6221L95.79 88.1711L102.113 84.2821L103.002 85.7321L96.679 89.6221ZM109.325 81.8431L108.436 80.3921L114.759 76.5021L115.648 77.9531L109.325 81.8431ZM121.977 74.0691L121.088 72.6181L127.411 68.7281L128.3 70.1791L121.977 74.0691ZM134.628 66.2901L133.739 64.8391L140.062 60.9491L140.952 62.4001L134.628 66.2901ZM147.28 58.5161L146.391 57.0651L152.714 53.1751L153.603 54.6261L147.28 58.5161ZM159.932 50.7361L159.042 49.2861L165.36 45.4011L166.25 46.8521L159.932 50.7361ZM172.578 42.9621L171.689 41.5121L178.012 37.6221L178.901 39.0731L172.578 42.9621ZM185.23 35.1831L184.34 33.7321L190.664 29.8431L191.553 31.2941L185.23 35.1831ZM197.881 27.4091L196.992 25.9581L203.315 22.0691L204.204 23.5201L197.881 27.4091ZM210.533 19.6301L209.644 18.1791L215.967 14.2901L216.856 15.7401L210.533 19.6301ZM223.179 11.8561L222.29 10.4051L228.613 6.51611L229.502 7.96611L223.179 11.8561Z" fill="#A0BFF8"/>
<path d="M81.8792 65.5461L80.9902 64.0951L87.3132 60.2061L88.2032 61.6561L81.8792 65.5461ZM94.5262 57.7721L93.6372 56.3211L99.9602 52.4321L100.849 53.8821L94.5262 57.7721ZM107.177 49.9931L106.288 48.5421L112.611 44.6521L113.501 46.1031L107.177 49.9931ZM119.829 42.2191L118.94 40.7681L125.263 36.8781L126.152 38.3291L119.829 42.2191ZM132.481 34.4401L131.591 32.9891L137.915 29.0991L138.804 30.5501L132.481 34.4401ZM145.127 26.6601L144.238 25.2101L150.561 21.3201L151.45 22.7711L145.127 26.6601ZM157.779 18.8861L156.889 17.4361L163.213 13.5461L164.102 14.9971L157.779 18.8861ZM170.43 11.1071L169.541 9.6561L175.864 5.76709L176.753 7.21809L170.43 11.1071Z" fill="#A0BFF8"/>
<path d="M131.29 0L129.439 1.13901L130.328 2.59L134.54 0H131.29ZM123.116 5.02299L116.787 8.91299L117.682 10.364L124.005 6.474L123.116 5.02299ZM110.464 12.802L104.136 16.692L105.03 18.143L111.353 14.253L110.464 12.802ZM97.812 20.582L91.489 24.466L92.378 25.917L98.702 22.032L97.812 20.582ZM85.161 28.356L78.838 32.245L79.727 33.696L86.055 29.806L85.161 28.356ZM72.509 36.135L66.186 40.019L67.075 41.47L73.404 37.586L72.509 36.135Z" fill="#A0BFF8"/>
<path d="M52.2762 17.394L51.3872 15.943L57.7102 12.054L58.5992 13.504L52.2762 17.394ZM64.9282 9.62L64.0382 8.16901L70.3622 4.28L71.2512 5.73L64.9282 9.62ZM77.3192 0L76.6852 0.389999L77.5792 1.841L80.5742 0H77.3192Z" fill="#A0BFF8"/>
<path d="M88.7488 148.761L134.358 121.742C139.225 118.862 141.321 112.902 139.34 107.604L164.872 150.082L163.962 148.975C160.306 144.529 153.952 143.416 149.001 146.349L103.34 173.394C99.1798 175.859 93.8138 174.481 91.3488 170.326L85.6758 160.748C83.2158 156.593 84.5888 151.226 88.7488 148.761Z" fill="white"/>
<path d="M163.961 148.98L164.871 150.088L139.339 107.609C141.326 112.908 139.225 118.862 134.358 121.748L133.11 122.486C135.299 127.546 137.831 132.522 140.712 137.384C142.766 140.847 144.955 144.175 147.264 147.378L149.001 146.349C153.951 143.416 160.306 144.534 163.961 148.98Z" fill="#A0BFF8"/>
<path d="M367.869 141.19C324.324 199.254 241.951 211.026 183.888 167.476C131.139 127.915 116.6 56.311 147.03 0H378.456C401.96 43.696 399.589 98.894 367.869 141.19Z" fill="white"/>
<path d="M329.712 175.412C267.265 212.399 186.655 191.766 149.667 129.319C125.315 88.208 125.939 39.224 147.031 0H378.42C411.752 61.745 390.619 139.334 329.712 175.412Z" fill="white"/>
<path d="M322.629 163.457C266.786 196.539 194.699 178.079 161.622 122.236C138.461 83.132 140.567 36.062 163.083 0H362.357C362.862 0.806 363.361 1.62201 363.85 2.44901C396.927 58.297 378.472 130.38 322.629 163.457Z" fill="#D2D7F0"/>
<path d="M322.629 163.457C266.786 196.539 194.699 178.079 161.622 122.236C138.461 83.132 140.567 36.062 163.083 0H362.357C362.862 0.806 363.361 1.62201 363.85 2.44901C396.927 58.297 378.472 130.38 322.629 163.457Z" fill="#D4E2FC"/>
<path d="M171.902 0C166.042 4.035 160.68 8.564 155.85 13.489C157.966 8.856 160.384 4.347 163.098 0H171.902Z" fill="#A0BFF8"/>
<path d="M322.629 163.457C319.291 165.438 315.89 167.227 312.442 168.839C347.631 133.848 355.81 78.151 329.046 33.758C320.715 19.942 309.837 8.611 297.373 0H362.357C362.861 0.806 363.361 1.62201 363.849 2.44901C396.927 58.297 378.472 130.38 322.629 163.457Z" fill="#A0BFF8"/>
<path d="M319.67 156.78C267.519 188.224 199.748 171.434 168.303 119.283C145.278 81.099 148.112 34.544 171.746 0H353.689C354.895 1.758 356.055 3.562 357.167 5.408C388.617 57.564 371.826 125.33 319.67 156.78Z" fill="#A26147"/>
<path d="M313.914 147.222C313.862 147.254 313.805 147.285 313.753 147.316C304.533 152.849 293.135 153.348 283.374 148.834L223.163 120.994C219.435 119.267 216.294 116.412 214.433 112.752C211.983 107.942 207.803 103.99 202.353 101.936C198.032 100.308 193.529 100.1 189.348 101.083C185.255 102.045 180.95 101.478 177.133 99.715C174.601 98.545 172.385 96.84 170.628 94.754C168.865 92.669 167.565 90.204 166.858 87.506C158.871 57.013 166 24.367 185.677 0H339.799C342.639 3.52 345.249 7.249 347.615 11.17C375.83 57.97 360.714 119.007 313.914 147.222Z" fill="#3D281E"/>
<path d="M325.843 152.766C331.932 144.004 336.669 134.456 339.976 124.457C365.259 92.955 369.653 47.72 347.615 11.17C347.319 10.681 347.022 10.192 346.716 9.70799C346.497 9.35999 346.279 9.012 346.055 8.668C345.66 8.055 345.26 7.446 344.849 6.843C344.641 6.531 344.433 6.219 344.209 5.907C344.027 5.632 343.835 5.356 343.637 5.086C343.523 4.924 343.408 4.76301 343.294 4.60201C343.096 4.32101 342.894 4.04 342.691 3.765C342.426 3.401 342.16 3.03699 341.885 2.67799C341.557 2.23599 341.224 1.799 340.881 1.368C340.855 1.331 340.829 1.3 340.803 1.269C340.476 0.841997 340.143 0.425995 339.81 0.00999451C339.805 0.00499451 339.805 0.005 339.8 0H353.689C354.895 1.758 356.055 3.562 357.168 5.408C387.338 55.442 373.106 119.85 325.843 152.766Z" fill="#5C3C2E"/>
<path d="M339.976 124.457C349.742 94.957 347.043 61.532 329.743 32.833C321.709 19.51 311.304 8.492 299.396 0H339.8C342.639 3.52 345.249 7.249 347.615 11.17C369.653 47.72 365.259 92.955 339.976 124.457Z" fill="black"/>
<path d="M204.55 123.352C206.421 118.38 203.911 112.834 198.944 110.964C193.977 109.095 188.434 111.611 186.562 116.583C184.691 121.556 187.201 127.102 192.168 128.971C197.135 130.84 202.678 128.325 204.55 123.352Z" fill="#3D281E"/>
<path d="M183.981 112.349C184.729 110.36 183.726 108.142 181.74 107.395C179.753 106.647 177.536 107.654 176.788 109.643C176.039 111.632 177.043 113.85 179.029 114.597C181.015 115.345 183.232 114.338 183.981 112.349Z" fill="#3D281E"/>
<path d="M207.516 133.821C207.965 132.628 207.361 131.297 206.168 130.847C204.975 130.398 203.643 131.002 203.194 132.195C202.745 133.389 203.348 134.72 204.542 135.169C205.735 135.618 207.067 135.015 207.516 133.821Z" fill="#3D281E"/>
<path d="M174.431 106.734C174.88 105.541 174.277 104.209 173.084 103.76C171.89 103.311 170.559 103.915 170.11 105.108C169.66 106.301 170.264 107.633 171.457 108.082C172.651 108.531 173.982 107.928 174.431 106.734Z" fill="#3D281E"/>
<path d="M199.905 139.02C200.654 137.031 199.65 134.812 197.664 134.065C195.678 133.317 193.461 134.324 192.712 136.313C191.964 138.302 192.967 140.52 194.953 141.267C196.94 142.015 199.157 141.009 199.905 139.02Z" fill="#3D281E"/>
<path d="M519.901 161.476L520 186.352L450.258 159.333L417.019 135.907C415.568 134.883 416.452 132.6 418.215 132.824L458.645 137.712L519.901 161.476Z" fill="#744C3A"/>
<path d="M460.32 131.134L452.021 152.521L520 178.859V154.253L460.32 131.134Z" fill="#A26147"/>
<path d="M428.958 136.271L452.02 152.521L460.408 130.9L432.333 127.582L428.958 136.271Z" fill="white"/>
<path d="M419.978 126.012C418.215 125.788 417.331 128.071 418.782 129.095L428.958 136.266L432.328 127.577L419.978 126.012Z" fill="black"/>
<path d="M452.021 152.521L454.054 147.285L520 173.155V178.896L452.021 152.521Z" fill="#3D281E"/>
<path d="M454.054 147.285L429.759 134.217L428.958 136.271L452.02 152.521L454.054 147.285Z" fill="#D4E2FC"/>
<path d="M27.4138 502.731C26.1658 500.62 26.7378 498.41 28.8498 497.162C30.9608 495.914 33.1498 496.481 34.4028 498.602L35.7338 500.854C36.9878 502.981 36.4308 505.18 34.3198 506.428C32.2088 507.676 29.9988 507.104 28.7458 504.978L27.4138 502.731ZM32.7808 499.616C32.0158 498.316 30.8618 497.932 29.7018 498.618C28.5428 499.304 28.3088 500.506 29.0728 501.8L30.3578 503.979C31.1218 505.279 32.2968 505.669 33.4568 504.983C34.6158 504.296 34.8348 503.106 34.0648 501.795L32.7808 499.616Z" fill="#FA9269"/>
<path d="M43.95 500.511L38.261 503.87L37.398 502.404L39.411 501.218L35.88 495.233L34.174 496.242L33.311 494.775L36.67 492.794L41.059 500.24L43.082 499.044L43.95 500.511Z" fill="#FA9269"/>
<path d="M265.403 360.37C264.155 358.259 264.727 356.049 266.838 354.801C268.949 353.553 271.138 354.12 272.391 356.242L273.723 358.493C274.976 360.62 274.419 362.82 272.308 364.068C270.197 365.316 267.987 364.743 266.734 362.622L265.403 360.37ZM270.774 357.256C270.01 355.956 268.855 355.571 267.696 356.257C266.536 356.938 266.302 358.145 267.067 359.44L268.351 361.618C269.115 362.918 270.291 363.308 271.45 362.622C272.61 361.941 272.828 360.745 272.059 359.434L270.774 357.256Z" fill="#FA9269"/>
<path d="M280.16 359.44C278.252 360.568 276.115 360.266 275.179 358.675C274.654 357.786 274.747 356.699 275.309 355.815C274.425 355.774 273.634 355.363 273.182 354.598C272.319 353.132 272.979 351.234 274.711 350.21C276.442 349.185 278.413 349.534 279.276 351C279.729 351.764 279.713 352.664 279.328 353.444C280.368 353.376 281.356 353.824 281.882 354.718C282.823 356.304 282.069 358.311 280.16 359.44ZM274.872 353.616C275.283 354.318 276.198 354.463 276.962 354.016C277.711 353.574 278.039 352.695 277.623 351.993C277.212 351.291 276.318 351.151 275.543 351.608C274.752 352.076 274.456 352.919 274.872 353.616ZM276.905 357.703C277.358 358.467 278.392 358.592 279.334 358.036C280.264 357.49 280.654 356.517 280.202 355.753C279.734 354.962 278.678 354.832 277.763 355.373C276.832 355.924 276.437 356.912 276.905 357.703Z" fill="#FA9269"/>
<path d="M295.807 408.387C294.559 406.276 295.131 404.066 297.242 402.818C299.353 401.57 301.543 402.137 302.796 404.258L304.127 406.51C305.38 408.637 304.824 410.836 302.713 412.084C300.601 413.332 298.391 412.76 297.138 410.633L295.807 408.387ZM301.179 405.272C300.414 403.972 299.26 403.587 298.1 404.274C296.941 404.96 296.707 406.161 297.471 407.456L298.755 409.635C299.52 410.935 300.695 411.325 301.855 410.639C303.014 409.952 303.233 408.761 302.463 407.451L301.179 405.272Z" fill="#FA9269"/>
<path d="M311.048 400.509L311.246 400.842C312.92 403.681 312.593 406.297 310.367 407.607C309.145 408.33 307.944 408.418 306.691 408.008L307.2 406.37C308.022 406.656 308.817 406.635 309.54 406.208C310.596 405.584 310.882 404.092 309.987 402.459C309.79 403.348 309.249 404.061 308.37 404.581C306.727 405.548 304.564 405.023 303.617 403.421C302.567 401.638 303.17 399.412 305.006 398.325C307.153 397.056 309.514 397.914 311.048 400.509ZM305.141 402.397C305.703 403.354 306.899 403.629 307.866 403.057C308.807 402.501 309.145 401.326 308.578 400.369C308.022 399.428 306.836 399.131 305.879 399.693C304.912 400.27 304.585 401.456 305.141 402.397Z" fill="#FA9269"/>
<path d="M332.769 456.731L327.08 460.091L326.217 458.624L328.229 457.439L324.698 451.453L322.993 452.462L322.129 450.996L325.489 449.015L329.883 456.461L331.905 455.265L332.769 456.731Z" fill="#FA9269"/>
<path d="M330.028 450.814C328.78 448.703 329.352 446.492 331.463 445.244C333.574 443.996 335.764 444.563 337.017 446.685L338.348 448.937C339.601 451.063 339.045 453.263 336.934 454.511C334.822 455.759 332.612 455.187 331.359 453.06L330.028 450.814ZM335.4 447.694C334.635 446.394 333.481 446.014 332.321 446.695C331.162 447.377 330.928 448.583 331.692 449.878L332.977 452.057C333.741 453.357 334.916 453.747 336.076 453.06C337.235 452.379 337.454 451.183 336.684 449.873L335.4 447.694Z" fill="#FA9269"/>
<path d="M360.469 504.072L354.775 507.431L353.912 505.965L355.924 504.779L352.393 498.794L350.688 499.803L349.825 498.337L353.184 496.355L357.578 503.802L359.601 502.606L360.469 504.072Z" fill="#FA9269"/>
<path d="M366.85 500.313L361.161 503.672L360.298 502.205L362.31 501.02L358.779 495.035L357.074 496.043L356.21 494.577L359.57 492.596L363.964 500.042L365.986 498.846L366.85 500.313Z" fill="#FA9269"/>
</svg>
